<!-- icon666.com - MILLIONS vector ICONS FREE --><svg id="Capa_1" enable-background="new 0 0 513.178 513.178" viewBox="0 0 513.178 513.178" xmlns="http://www.w3.org/2000/svg"><path d="m498.129 257.986c8.298 0 15.049-6.75 15.049-15.048v-25.289c0-8.298-6.751-15.049-15.049-15.049h-33.494v-9.02c0-4.25-1.433-8.161-3.818-11.314 2.385-3.153 3.818-7.065 3.818-11.314v-16.52c0-4.249-1.433-8.161-3.818-11.314 2.385-3.153 3.818-7.064 3.818-11.314v-16.521c0-4.249-1.433-8.161-3.818-11.314 2.385-3.153 3.818-7.064 3.818-11.314v-16.519c0-10.374-8.44-18.813-18.814-18.813h-377.464c-10.374 0-18.814 8.439-18.814 18.813v16.521c0 4.249 1.433 8.161 3.818 11.314-2.385 3.153-3.818 7.065-3.818 11.314v16.521c0 4.249 1.433 8.161 3.818 11.314-2.385 3.153-3.818 7.065-3.818 11.314v16.52c0 4.25 1.433 8.161 3.818 11.314-2.385 3.153-3.818 7.065-3.818 11.314v9.02h-34.494c-8.298-.001-15.049 6.75-15.049 15.047v25.289c0 8.298 6.751 15.048 15.049 15.048h3.397v15.252h-4.384c-7.203 0-13.062 5.86-13.062 13.063v18.856c0 1.991.461 3.872 1.261 5.563-.8 1.69-1.261 3.571-1.261 5.562v18.856c0 5.964 4.022 10.996 9.493 12.554v95.835c0 6.797 5.53 12.327 12.327 12.327h12.759c5.707 0 10.633-3.874 11.979-9.419l23.847-98.235h308.035c4.143 0 7.5-3.357 7.5-7.5s-3.357-7.5-7.5-7.5h-322.605v-14.98h399.508v14.981h-44.939c-4.143 0-7.5 3.357-7.5 7.5s3.357 7.5 7.5 7.5h31.37l23.847 98.234c1.346 5.546 6.271 9.42 11.979 9.42h12.759c6.797 0 12.327-5.53 12.327-12.327v-96.168c4.953-1.858 8.493-6.628 8.493-12.222v-18.856c0-1.991-.461-3.872-1.261-5.563.8-1.69 1.261-3.571 1.261-5.563v-18.856c0-7.203-5.859-13.063-13.063-13.063h-3.384v-15.252h2.397zm.049-40.337-.049 25.337h-67.621v-14.071h15.313c7.705 0 14.336-4.661 17.241-11.307zm-67.67 55.589v-15.252h16.101v15.252zm-34.122 0v-44.323h19.122v44.323zm-297.716 0v-44.323h19.122v44.323zm-31.101 0v-15.252h16.101v15.252zm.788-59.323c-2.104 0-3.814-1.711-3.814-3.814v-16.52c0-2.104 1.711-3.814 3.814-3.814h377.463c2.104 0 3.814 1.711 3.814 3.814v16.52c0 2.104-1.711 3.814-3.814 3.814zm-3.814-42.963v-16.52c0-2.104 1.711-3.814 3.814-3.814h377.463c2.104 0 3.814 1.711 3.814 3.814v16.52c0 2.104-1.711 3.814-3.814 3.814h-377.463c-2.103.001-3.814-1.71-3.814-3.814zm0-94.816c0-2.103 1.711-3.813 3.814-3.813h377.463c2.104 0 3.814 1.711 3.814 3.813v16.521c0 2.103-1.711 3.813-3.814 3.813h-236.902-42.999c-4.143 0-7.5 3.357-7.5 7.5s3.357 7.5 7.5 7.5h42.999 236.902c2.104 0 3.814 1.711 3.814 3.814v16.521c0 2.103-1.711 3.813-3.814 3.813h-377.463c-2.104 0-3.814-1.711-3.814-3.813v-16.521c0-2.104 1.711-3.814 3.814-3.814h25.326 40.273c4.143 0 7.5-3.357 7.5-7.5s-3.357-7.5-7.5-7.5h-40.272-25.327c-2.104 0-3.814-1.711-3.814-3.813zm-49.543 166.802.049-25.338h36.064c2.904 6.65 9.537 11.314 17.245 11.314h15.312v14.067zm18.446 15.048h19.123v15.252h-19.123zm.031 182.869h-7.983v-92.654h30.476zm8.358-107.654h-23.823c-.006 0-.013-.001-.019-.001s-.013.001-.019.001h-1.974v-14.981h25.835zm429.508-14.981h25.835v14.981h-.974c-.007 0-.013-.001-.019-.001s-.013.001-.019.001h-24.823zm9.358 122.635-22.493-92.654h30.476v92.654zm16.477-137.635h-481.178v-14.981h160.956c4.143 0 7.5-3.357 7.5-7.5s-3.357-7.5-7.5-7.5h-44.164v-44.323h248.594v44.323h-172.468c-4.143 0-7.5 3.357-7.5 7.5s3.357 7.5 7.5 7.5h288.26zm-16.447-29.982h-19.123v-15.252h19.123z" fill="#000000" style="fill: rgb(255, 255, 255);"></path></svg>