<svg width="336" height="107" viewBox="0 0 336 107" fill="none" xmlns="http://www.w3.org/2000/svg">
<path d="M334.527 24.2262C335.539 30.0521 332.045 36.5078 324.533 43.2309C317.043 49.9334 305.678 56.7902 291.267 63.4013C262.45 76.6202 221.557 88.8083 175.422 96.82C129.287 104.832 86.6799 107.144 55.0937 104.415C39.2967 103.049 26.2856 100.426 16.9749 96.6406C7.63555 92.844 2.16966 87.9443 1.15794 82.1183C0.14622 76.2924 3.64015 69.8367 11.1527 63.1136C18.6422 56.4111 30.0069 49.5542 44.4187 42.9432C73.2354 29.7243 114.128 17.5362 160.263 9.52449C206.398 1.5128 249.005 -0.799508 280.592 1.92997C296.389 3.29503 309.4 5.91885 318.71 9.70383C328.05 13.5005 333.516 18.4002 334.527 24.2262Z" stroke="#9EAF7C"/>
</svg>
