<svg width="340" height="90" viewBox="0 0 340 90" fill="none" xmlns="http://www.w3.org/2000/svg">
<path d="M339.022 45.1716C339.022 51.0847 334.475 56.8475 325.923 62.186C317.397 67.5082 305.027 72.3195 289.696 76.3673C259.043 84.4608 216.668 89.4726 169.843 89.4726C123.017 89.4726 80.6422 84.4608 49.9887 76.3673C34.6583 72.3195 22.288 67.5082 13.7622 62.186C5.21011 56.8475 0.663147 51.0847 0.663147 45.1716C0.663147 39.2585 5.21011 33.4958 13.7622 28.1572C22.288 22.835 34.6583 18.0237 49.9887 13.9759C80.6422 5.88241 123.017 0.870605 169.843 0.870605C216.668 0.870605 259.043 5.88241 289.696 13.9759C305.027 18.0237 317.397 22.835 325.923 28.1572C334.475 33.4958 339.022 39.2585 339.022 45.1716Z" stroke="#9EAF7C"/>
</svg>
