<svg width="150" height="61" viewBox="0 0 150 61" fill="none" xmlns="http://www.w3.org/2000/svg">
<path d="M38.9 43.85V47H5.65V9.9C5.65 7.8 5.34667 6.12 4.74 4.86C4.18 3.55333 2.85 2.9 0.75 2.9H0.05V0.799998H8.45C9.66333 0.799998 10.6667 0.963331 11.46 1.29C12.3 1.57 12.9533 2.06 13.42 2.76C13.9333 3.46 14.2833 4.39333 14.47 5.56C14.6567 6.72667 14.75 8.17333 14.75 9.9V43.85H38.9ZM64.5665 30.55C64.5665 28.5433 64.4032 26.7 64.0765 25.02C63.7965 23.2933 63.3532 21.8 62.7465 20.54C62.1398 19.28 61.3698 18.3 60.4365 17.6C59.5032 16.9 58.4298 16.55 57.2165 16.55C56.0032 16.55 54.9298 16.9 53.9965 17.6C53.0632 18.3 52.2932 19.28 51.6865 20.54C51.0798 21.8 50.6132 23.2933 50.2865 25.02C50.0065 26.7 49.8665 28.5433 49.8665 30.55C49.8665 32.5567 50.0065 34.4233 50.2865 36.15C50.6132 37.83 51.0798 39.3 51.6865 40.56C52.2932 41.82 53.0632 42.8 53.9965 43.5C54.9298 44.2 56.0032 44.55 57.2165 44.55C58.4298 44.55 59.5032 44.2 60.4365 43.5C61.3698 42.8 62.1398 41.82 62.7465 40.56C63.3532 39.3 63.7965 37.83 64.0765 36.15C64.4032 34.4233 64.5665 32.5567 64.5665 30.55ZM40.4165 30.55C40.4165 28.17 40.7898 25.93 41.5365 23.83C42.3298 21.73 43.4498 19.91 44.8965 18.37C46.3432 16.83 48.0932 15.6167 50.1465 14.73C52.2465 13.8433 54.6032 13.4 57.2165 13.4C59.8298 13.4 62.1632 13.8433 64.2165 14.73C66.3165 15.6167 68.0898 16.83 69.5365 18.37C70.9832 19.91 72.0798 21.73 72.8265 23.83C73.6198 25.93 74.0165 28.17 74.0165 30.55C74.0165 32.93 73.6198 35.17 72.8265 37.27C72.0798 39.37 70.9832 41.19 69.5365 42.73C68.0898 44.27 66.3165 45.4833 64.2165 46.37C62.1632 47.2567 59.8298 47.7 57.2165 47.7C54.6032 47.7 52.2465 47.2567 50.1465 46.37C48.0932 45.4833 46.3432 44.27 44.8965 42.73C43.4498 41.19 42.3298 39.37 41.5365 37.27C40.7898 35.17 40.4165 32.93 40.4165 30.55ZM79.5995 24.32C79.5995 22.3133 79.9729 20.61 80.7195 19.21C81.5129 17.81 82.5862 16.69 83.9395 15.85C85.3395 14.9633 86.9495 14.3333 88.7695 13.96C90.5895 13.5867 92.5495 13.4 94.6495 13.4H109.35V15.29L103.05 16.13C105.01 16.8767 106.596 18.02 107.81 19.56C109.07 21.1 109.7 22.6867 109.7 24.32C109.7 26.3267 109.326 28.03 108.58 29.43C107.88 30.7833 106.876 31.88 105.57 32.72C104.263 33.56 102.676 34.1667 100.81 34.54C98.9895 34.9133 96.9362 35.1 94.6495 35.1C92.5495 35.1 90.8462 35.2167 89.5395 35.45C88.2795 35.6833 87.6495 36.2667 87.6495 37.2C87.6495 37.9933 88.2795 38.5067 89.5395 38.74C90.8462 38.9267 92.5495 39.0433 94.6495 39.09C97.0295 39.1367 99.2462 39.3933 101.3 39.86C103.4 40.3267 105.22 41.0267 106.76 41.96C108.3 42.8467 109.513 43.99 110.4 45.39C111.333 46.7433 111.8 48.33 111.8 50.15C111.8 52.2033 111.356 53.9067 110.47 55.26C109.63 56.66 108.44 57.78 106.9 58.62C105.36 59.46 103.54 60.0667 101.44 60.44C99.3395 60.8133 97.0762 61 94.6495 61C92.1762 61 89.8895 60.8133 87.7895 60.44C85.7362 60.0667 83.9395 59.46 82.3995 58.62C80.8595 57.78 79.6462 56.66 78.7595 55.26C77.9195 53.9067 77.4995 52.2033 77.4995 50.15C77.4995 48.89 77.7795 47.77 78.3395 46.79C78.8995 45.7633 79.6229 44.8767 80.5095 44.13C81.4429 43.3833 82.4695 42.7533 83.5895 42.24C84.7095 41.7267 85.8295 41.33 86.9495 41.05C86.0629 40.77 85.3162 40.3267 84.7095 39.72C84.1029 39.1133 83.7995 38.2733 83.7995 37.2C83.7995 35.6133 84.7329 34.4467 86.5995 33.7C84.6395 33 82.9829 31.81 81.6295 30.13C80.2762 28.4033 79.5995 26.4667 79.5995 24.32ZM91.9195 41.96C90.3795 42.6133 89.1662 43.5933 88.2795 44.9C87.3929 46.16 86.9495 47.91 86.9495 50.15C86.9495 52.81 87.6495 54.7467 89.0495 55.96C90.4495 57.22 92.3162 57.85 94.6495 57.85C96.9829 57.85 98.8495 57.22 100.25 55.96C101.65 54.7467 102.35 52.81 102.35 50.15C102.35 48.05 101.696 46.3233 100.39 44.97C99.0829 43.6167 97.3562 42.73 95.2095 42.31L91.9195 41.96ZM100.25 24.32C100.25 21.66 99.7129 19.6533 98.6395 18.3C97.6129 16.9 96.2829 16.2 94.6495 16.2C93.0162 16.2 91.6629 16.8533 90.5895 18.16C89.5629 19.42 89.0495 21.4733 89.0495 24.32C89.0495 27.2133 89.5629 29.2667 90.5895 30.48C91.6629 31.6933 93.0162 32.3 94.6495 32.3C96.2829 32.3 97.6129 31.6933 98.6395 30.48C99.7129 29.2667 100.25 27.2133 100.25 24.32ZM139.83 30.55C139.83 28.5433 139.667 26.7 139.34 25.02C139.06 23.2933 138.617 21.8 138.01 20.54C137.403 19.28 136.633 18.3 135.7 17.6C134.767 16.9 133.693 16.55 132.48 16.55C131.267 16.55 130.193 16.9 129.26 17.6C128.327 18.3 127.557 19.28 126.95 20.54C126.343 21.8 125.877 23.2933 125.55 25.02C125.27 26.7 125.13 28.5433 125.13 30.55C125.13 32.5567 125.27 34.4233 125.55 36.15C125.877 37.83 126.343 39.3 126.95 40.56C127.557 41.82 128.327 42.8 129.26 43.5C130.193 44.2 131.267 44.55 132.48 44.55C133.693 44.55 134.767 44.2 135.7 43.5C136.633 42.8 137.403 41.82 138.01 40.56C138.617 39.3 139.06 37.83 139.34 36.15C139.667 34.4233 139.83 32.5567 139.83 30.55ZM115.68 30.55C115.68 28.17 116.053 25.93 116.8 23.83C117.593 21.73 118.713 19.91 120.16 18.37C121.607 16.83 123.357 15.6167 125.41 14.73C127.51 13.8433 129.867 13.4 132.48 13.4C135.093 13.4 137.427 13.8433 139.48 14.73C141.58 15.6167 143.353 16.83 144.8 18.37C146.247 19.91 147.343 21.73 148.09 23.83C148.883 25.93 149.28 28.17 149.28 30.55C149.28 32.93 148.883 35.17 148.09 37.27C147.343 39.37 146.247 41.19 144.8 42.73C143.353 44.27 141.58 45.4833 139.48 46.37C137.427 47.2567 135.093 47.7 132.48 47.7C129.867 47.7 127.51 47.2567 125.41 46.37C123.357 45.4833 121.607 44.27 120.16 42.73C118.713 41.19 117.593 39.37 116.8 37.27C116.053 35.17 115.68 32.93 115.68 30.55Z" fill="white"/>
</svg>
