<svg width="275" height="7" viewBox="0 0 275 7" fill="none" xmlns="http://www.w3.org/2000/svg">
<path d="M137.577 1.75C144.397 1.75 144.397 5.93269 151.217 5.93269C158.037 5.93269 158.037 1.75 164.858 1.75C171.678 1.75 171.678 5.93269 178.482 5.93269C185.302 5.93269 185.302 1.75 192.106 1.75C198.927 1.75 198.927 5.93269 205.731 5.93269C212.551 5.93269 212.551 1.75 219.371 1.75C226.191 1.75 226.191 5.93269 233.012 5.93269C239.831 5.93269 239.831 1.75 246.652 1.75C253.472 1.75 253.472 5.93269 260.292 5.93269C267.112 5.93269 267.112 1.75 273.933 1.75" stroke="#9EAF7C" stroke-width="2" stroke-miterlimit="10" stroke-linecap="round"/>
<path d="M1.22119 1.75C8.04138 1.75 8.04138 5.93269 14.8616 5.93269C21.6818 5.93269 21.6818 1.75 28.5019 1.75C35.3221 1.75 35.3221 5.93269 42.1263 5.93269C48.9467 5.93269 48.9467 1.75 55.7507 1.75C62.5711 1.75 62.5711 5.93269 69.3751 5.93269C76.1954 5.93269 76.1954 1.75 83.0152 1.75C89.8356 1.75 89.8356 5.93269 96.6559 5.93269C103.476 5.93269 103.476 1.75 110.296 1.75C117.116 1.75 117.116 5.93269 123.937 5.93269C130.757 5.93269 130.757 1.75 137.577 1.75" stroke="#9EAF7C" stroke-width="2" stroke-miterlimit="10" stroke-linecap="round"/>
</svg>
