<!-- icon666.com - MILLIONS vector ICONS FREE --><svg version="1.1" id="Layer_1" xmlns="http://www.w3.org/2000/svg" xmlns:xlink="http://www.w3.org/1999/xlink" x="0px" y="0px" viewBox="0 0 512.001 512.001" style="enable-background:new 0 0 512.001 512.001;" xml:space="preserve"><g><path style="fill:#507C5C;" d="M417.716,394.167H249.664c-7.846,0-14.209-6.361-14.209-14.209s6.363-14.209,14.209-14.209h168.052 c7.846,0,14.209,6.361,14.209,14.209S425.563,394.167,417.716,394.167z"></path><path style="fill:#507C5C;" d="M190.845,394.167H153.84c-7.846,0-14.209-6.361-14.209-14.209s6.363-14.209,14.209-14.209h37.005 c7.846,0,14.209,6.361,14.209,14.209S198.691,394.167,190.845,394.167z"></path><path style="fill:#507C5C;" d="M76.512,455.893C34.322,455.893,0,421.828,0,379.958c0-42.029,34.193-76.224,76.224-76.224 c2.025,0,346.787,0.287,361.461,0.298c7.848,0.006,14.205,6.373,14.198,14.221c-0.007,7.843-6.367,14.196-14.209,14.198 c-0.004,0-0.007,0-0.013,0c-3.594-0.003-359.423-0.298-361.437-0.298c-26.359,0-47.805,21.446-47.805,47.805 c0,26.2,21.575,47.517,48.094,47.517l261.536-0.006c7.846,0,14.209,6.361,14.209,14.209c0,7.848-6.361,14.209-14.209,14.209 L76.512,455.893z"></path></g><circle style="fill:#CFF09E;" cx="436.251" cy="379.955" r="61.54"></circle><g><path style="fill:#507C5C;" d="M436.252,455.705c-41.768,0-75.748-33.981-75.748-75.749s33.98-75.748,75.748-75.748 s75.749,33.981,75.749,75.748C512,421.725,478.019,455.705,436.252,455.705z M436.252,332.628 c-26.097,0-47.329,21.231-47.329,47.329c0,26.098,21.231,47.331,47.329,47.331c26.098,0,47.331-21.231,47.331-47.331 C483.582,353.859,462.35,332.628,436.252,332.628z"></path><path style="fill:#507C5C;" d="M417.716,146.542h-111.21c-7.846,0-14.209-6.361-14.209-14.209s6.363-14.209,14.209-14.209h111.21 c7.846,0,14.209,6.361,14.209,14.209S425.563,146.542,417.716,146.542z"></path><path style="fill:#507C5C;" d="M247.686,146.542h-37.005c-7.846,0-14.209-6.361-14.209-14.209s6.363-14.209,14.209-14.209h37.005 c7.846,0,14.209,6.361,14.209,14.209S255.534,146.542,247.686,146.542z"></path><path style="fill:#507C5C;" d="M133.355,208.268c-42.189,0-76.512-34.065-76.512-75.935c0-42.029,34.193-76.224,76.224-76.224 h11.288c7.846,0,14.209,6.361,14.209,14.209s-6.363,14.209-14.209,14.209h-11.288c-26.359,0-47.805,21.445-47.805,47.805 c0,26.2,21.575,47.517,48.094,47.517l233.115-0.006c7.846,0,14.209,6.361,14.209,14.209s-6.361,14.209-14.209,14.209 L133.355,208.268z"></path><path style="fill:#507C5C;" d="M437.673,84.825H210.681c-7.846,0-14.209-6.361-14.209-14.209s6.363-14.209,14.209-14.209h226.99 c7.846,0,14.209,6.361,14.209,14.209S445.519,84.825,437.673,84.825z"></path></g><circle style="fill:#CFF09E;" cx="436.251" cy="132.331" r="61.54"></circle><g><path style="fill:#507C5C;" d="M436.252,208.08c-41.768,0-75.748-33.981-75.748-75.749s33.98-75.749,75.748-75.749 s75.749,33.981,75.749,75.749S478.019,208.08,436.252,208.08z M436.252,85.002c-26.097,0-47.329,21.231-47.329,47.331 s21.231,47.331,47.329,47.331c26.098,0,47.331-21.231,47.331-47.331S462.35,85.002,436.252,85.002z"></path><path style="fill:#507C5C;" d="M489.707,270.139H321.654c-7.846,0-14.209-6.361-14.209-14.209c0-7.848,6.363-14.209,14.209-14.209 h168.054c7.846,0,14.209,6.361,14.209,14.209C503.916,263.777,497.554,270.139,489.707,270.139z"></path><path style="fill:#507C5C;" d="M435.778,332.152c-7.846,0-14.209-6.361-14.209-14.209c0-7.848,6.363-14.209,14.209-14.209 c26.359,0,47.805-21.445,47.805-47.805c0-26.2-21.575-47.517-48.094-47.517l-233.115,0.006c-7.846,0-14.209-6.361-14.209-14.209 s6.361-14.209,14.209-14.209l233.115-0.006c42.189,0,76.512,34.065,76.512,75.935C512,297.959,477.807,332.152,435.778,332.152z"></path></g><circle style="fill:#CFF09E;" cx="104.168" cy="255.937" r="61.54"></circle><path style="fill:#507C5C;" d="M104.17,331.677c-41.768,0-75.749-33.981-75.749-75.748c0-41.768,33.981-75.749,75.749-75.749 s75.748,33.981,75.748,75.749C179.917,297.696,145.937,331.677,104.17,331.677z M104.17,208.599 c-26.098,0-47.331,21.231-47.331,47.331c0,26.098,21.231,47.329,47.331,47.329c26.097,0,47.329-21.231,47.329-47.329 C151.498,229.832,130.267,208.599,104.17,208.599z"></path></svg>